HIERARCHY
ROOT bvh
{
	OFFSET 83.5 2.3 -43.9
	CHANNELS 0
	JOINT km1
	{
		OFFSET -3.624 -3.932 -15.849
		CHANNELS 6 Xposition Yposition Zposition Xrotation Yrotation Zrotation
		End Site
		{
			OFFSET 6.616 4.854 5.812
		}
	}
	JOINT km2
	{
		OFFSET -3.206 11.200 19.085
		CHANNELS 6 Xposition Yposition Zposition Xrotation Yrotation Zrotation
		End Site
		{
			OFFSET 5.604 10.797 -2.023
		}
	}
	JOINT km3
	{
		OFFSET 0.115 13.940 -6.965
		CHANNELS 6 Xposition Yposition Zposition Xrotation Yrotation Zrotation
		End Site
		{
			OFFSET 4.889 -0.100 -9.877
		}
	}
	JOINT km4
	{
		OFFSET 11.452 -21.375 -2.548
		CHANNELS 6 Xposition Yposition Zposition Xrotation Yrotation Zrotation
		End Site
		{
			OFFSET 5.830 8.078 5.747
		}
	}
	JOINT km5
	{
		OFFSET 4.454 24.709 5.308
		CHANNELS 6 Xposition Yposition Zposition Xrotation Yrotation Zrotation
		End Site
		{
			OFFSET 6.565 -6.828 -7.190
		}
	}
	JOINT km6
	{
		OFFSET -19.729 9.296 -5.817
		CHANNELS 6 Xposition Yposition Zposition Xrotation Yrotation Zrotation
		End Site
		{
			OFFSET 4.464 -9.079 -7.501
		}
	}
	JOINT km7
	{
		OFFSET -9.733 18.295 -5.695
		CHANNELS 6 Xposition Yposition Zposition Xrotation Yrotation Zrotation
		End Site
		{
			OFFSET 7.071 4.221 -20.773
		}
	}
	JOINT km8
	{
		OFFSET 15.171 7.507 11.275
		CHANNELS 6 Xposition Yposition Zposition Xrotation Yrotation Zrotation
		End Site
		{
			OFFSET 4.025 5.877 -0.858
		}
	}
	JOINT km9
	{
		OFFSET -18.120 -17.436 -1.375
		CHANNELS 6 Xposition Yposition Zposition Xrotation Yrotation Zrotation
		End Site
		{
			OFFSET 3.021 -0.969 -4.386
		}
	}
	JOINT km10
	{
		OFFSET 17.153 1.518 -10.986
		CHANNELS 6 Xposition Yposition Zposition Xrotation Yrotation Zrotation
		End Site
		{
			OFFSET 4.727 -10.799 4.134
		}
	}
	JOINT km11
	{
		OFFSET -7.845 -21.522 7.277
		CHANNELS 6 Xposition Yposition Zposition Xrotation Yrotation Zrotation
		End Site
		{
			OFFSET 5.369 -1.013 -9.977
		}
	}
	JOINT km12
	{
		OFFSET -0.786 2.884 12.038
		CHANNELS 6 Xposition Yposition Zposition Xrotation Yrotation Zrotation
		End Site
		{
			OFFSET 6.389 -8.112 2.707
		}
	}
	JOINT km13
	{
		OFFSET 1.332 -22.015 17.148
		CHANNELS 6 Xposition Yposition Zposition Xrotation Yrotation Zrotation
		End Site
		{
			OFFSET 6.020 7.513 2.125
		}
	}
	JOINT km14
	{
		OFFSET 3.406 -13.222 -21.752
		CHANNELS 6 Xposition Yposition Zposition Xrotation Yrotation Zrotation
		End Site
		{
			OFFSET 6.039 -6.548 9.336
		}
	}
	JOINT km15
	{
		OFFSET -16.052 -10.193 10.345
		CHANNELS 6 Xposition Yposition Zposition Xrotation Yrotation Zrotation
		End Site
		{
			OFFSET 4.060 6.709 4.860
		}
	}
	JOINT km16
	{
		OFFSET -17.121 13.315 2.834
		CHANNELS 6 Xposition Yposition Zposition Xrotation Yrotation Zrotation
		End Site
		{
			OFFSET 5.578 9.460 -0.783
		}
	}
}
MOTION
Frames: 13
Frame Time: 0.01400
-3.430552 -3.688131 -16.233726 0 0 0 -2.774110 11.124944 19.009391 0 0 0 0.435383 14.394547 -7.084072 0 0 0 10.965677 -21.325425 -2.354537 0 0 0 4.262833 25.166625 5.168496 0 0 0 -19.231657 9.358196 -6.878957 0 0 0 -9.300809 18.814581 -5.801883 0 0 0 15.227754 7.849501 10.571510 0 0 0 -18.986693 -17.632758 -0.299961 0 0 0 16.990696 1.769173 -10.410815 0 0 0 -8.245863 -21.791526 7.403936 0 0 0 -0.747033 2.758098 12.000962 0 0 0 1.261932 -22.429775 17.143215 0 0 0 3.391738 -13.192752 -21.587994 0 0 0 -15.918698 -10.942831 11.744410 0 0 0 -17.072173 12.764873 2.619800 0 0 0 
-3.319231 -3.647294 -16.337331 0 0 0 -2.875739 11.204997 19.018283 0 0 0 0.451023 14.483557 -7.150256 0 0 0 10.985063 -21.316702 -2.351269 0 0 0 4.231254 25.127951 5.158379 0 0 0 -19.116992 9.385767 -6.977738 0 0 0 -9.350062 18.938251 -5.793636 0 0 0 15.107311 7.804938 10.630221 0 0 0 -18.955717 -17.352883 -0.233904 0 0 0 17.043244 1.623153 -10.667289 0 0 0 -8.240897 -21.744863 7.403226 0 0 0 -0.809914 2.750668 12.115337 0 0 0 1.291994 -22.518316 17.152213 0 0 0 3.405631 -13.329288 -21.573339 0 0 0 -15.895710 -11.037345 12.033477 0 0 0 -17.096290 12.752806 2.605064 0 0 0 
-3.225676 -3.613089 -16.403709 0 0 0 -3.030523 11.264023 19.025388 0 0 0 0.440353 14.532650 -7.205031 0 0 0 11.040936 -21.328553 -2.376019 0 0 0 4.210870 25.034954 5.166854 0 0 0 -19.059274 9.408047 -7.028495 0 0 0 -9.435191 19.012950 -5.786329 0 0 0 14.995813 7.714605 10.748904 0 0 0 -18.858741 -17.048894 -0.226394 0 0 0 17.115189 1.460070 -10.939414 0 0 0 -8.204634 -21.653281 7.416435 0 0 0 -0.856668 2.746299 12.231904 0 0 0 1.366664 -22.557428 17.172435 0 0 0 3.400850 -13.429795 -21.578678 0 0 0 -15.877966 -11.040011 12.200794 0 0 0 -17.139635 12.764016 2.586622 0 0 0 
-3.161341 -3.589930 -16.429391 0 0 0 -3.223031 11.293227 19.032392 0 0 0 0.408499 14.533584 -7.241884 0 0 0 11.125019 -21.354905 -2.428841 0 0 0 4.203469 24.896788 5.196257 0 0 0 -19.063823 9.418543 -7.031416 0 0 0 -9.538956 19.027546 -5.782454 0 0 0 14.906823 7.591325 10.919649 0 0 0 -18.711571 -16.750206 -0.272399 0 0 0 17.196671 1.301785 -11.200881 0 0 0 -8.143579 -21.523519 7.443704 0 0 0 -0.879921 2.745605 12.340103 0 0 0 1.479558 -22.541647 17.200985 0 0 0 3.372807 -13.483156 -21.605184 0 0 0 -15.866441 -10.948973 12.233956 0 0 0 -17.196689 12.790790 2.562999 0 0 0 
-3.135126 -3.582917 -16.414874 0 0 0 -3.432746 11.289210 19.042052 0 0 0 0.362720 14.482395 -7.255412 0 0 0 11.226668 -21.387378 -2.506285 0 0 0 4.209478 24.729174 5.246712 0 0 0 -19.128987 9.412254 -6.987850 0 0 0 -9.641402 18.976909 -5.783256 0 0 0 14.850731 7.454010 11.129529 0 0 0 -18.534354 -16.486534 -0.364823 0 0 0 17.276084 1.169089 -11.428956 0 0 0 -8.066580 -21.368265 7.481511 0 0 0 -0.875558 2.749636 12.429848 0 0 0 1.617306 -22.472149 17.232821 0 0 0 3.320630 -13.486783 -21.651535 0 0 0 -15.861371 -10.773617 12.133340 0 0 0 -17.259566 12.826202 2.534968 0 0 0 
-3.152091 -3.596903 -16.364306 0 0 0 -3.636533 11.254456 19.057474 0 0 0 0.311207 14.380300 -7.242098 0 0 0 11.334180 -21.416936 -2.601660 0 0 0 4.227961 24.552436 5.315803 0 0 0 -19.246412 9.386653 -6.900232 0 0 0 -9.723110 18.862916 -5.788498 0 0 0 14.833445 7.324896 11.361704 0 0 0 -18.348888 -16.284749 -0.495299 0 0 0 17.341737 1.078808 -11.606498 0 0 0 -7.983583 -21.204767 7.523227 0 0 0 -0.843333 2.759672 12.492583 0 0 0 1.761438 -22.356636 17.261545 0 0 0 3.247572 -13.446514 -21.714004 0 0 0 -15.862280 -10.533489 11.911770 0 0 0 -17.319143 12.865189 2.505579 0 0 0 
-3.212595 -3.635438 -16.284748 0 0 0 -3.811460 11.196921 19.081263 0 0 0 0.261787 14.234048 -7.200950 0 0 0 11.436186 -21.435616 -2.705692 0 0 0 4.256817 24.388855 5.398534 0 0 0 -19.402120 9.342288 -6.772087 0 0 0 -9.768446 18.694629 -5.796479 0 0 0 14.855700 7.226126 11.596921 0 0 0 -18.175841 -16.166091 -0.654871 0 0 0 17.383572 1.041504 -11.723095 0 0 0 -7.904284 -21.052775 7.560215 0 0 0 -0.786994 2.776921 12.522165 0 0 0 1.891066 -22.208337 17.280467 0 0 0 3.160829 -13.375177 -21.786833 0 0 0 -15.868161 -10.255922 11.592781 0 0 0 -17.366360 12.905211 2.479805 0 0 0 
-3.311997 -3.699780 -16.185147 0 0 0 -3.937594 11.128759 19.114692 0 0 0 0.220744 14.055631 -7.133902 0 0 0 11.522936 -21.438031 -2.807532 0 0 0 4.293148 24.259685 5.487615 0 0 0 -19.578267 9.282915 -6.608081 0 0 0 -9.768293 18.487548 -5.804307 0 0 0 14.913075 7.176228 11.815263 0 0 0 -18.032241 -16.144053 -0.834507 0 0 0 17.394698 1.060095 -11.775287 0 0 0 -7.836866 -20.932054 7.583282 0 0 0 -0.713895 2.802173 12.515476 0 0 0 1.985922 -22.044295 17.283773 0 0 0 3.070777 -13.290098 -21.862869 0 0 0 -15.877776 -9.972683 11.207695 0 0 0 -17.393509 12.946401 2.463850 0 0 0 
-3.440980 -3.788159 -16.075145 0 0 0 -4.000411 11.064385 19.157078 0 0 0 0.191914 13.861320 -7.045875 0 0 0 11.587332 -21.422404 -2.895968 0 0 0 4.333715 24.182270 5.574068 0 0 0 -19.755332 9.215110 -6.414070 0 0 0 -9.721805 18.262033 -5.808392 0 0 0 14.996703 7.186999 11.997944 0 0 0 -17.929558 -16.223111 -1.025458 0 0 0 17.372498 1.129595 -11.765937 0 0 0 -7.786996 -20.859821 7.584256 0 0 0 -0.634140 2.835479 12.472698 0 0 0 2.029329 -21.883163 17.267601 0 0 0 2.989722 -13.209967 -21.934355 0 0 0 -15.890007 -9.716077 10.791950 0 0 0 -17.395321 12.991224 2.464205 0 0 0 
-3.586501 -3.895451 -15.963914 0 0 0 -3.992503 11.018142 19.205473 0 0 0 0.176201 13.670109 -6.944483 0 0 0 11.625591 -21.390945 -2.960701 0 0 0 4.375417 24.167651 5.648121 0 0 0 -19.914472 9.147427 -6.197104 0 0 0 -9.636875 18.041049 -5.805096 0 0 0 15.094571 7.261311 12.128984 0 0 0 -17.872629 -16.398422 -1.219467 0 0 0 17.319145 1.238016 -11.702956 0 0 0 -7.757226 -20.848429 7.557453 0 0 0 -0.559345 2.875891 12.397230 0 0 0 2.010647 -21.742818 17.230869 0 0 0 2.930310 -13.151580 -21.993783 0 0 0 -15.904190 -9.515017 10.381117 0 0 0 -17.369709 13.043699 2.486594 0 0 0 
-3.733254 -4.013357 -15.859156 0 0 0 -3.914363 11.001925 19.254775 0 0 0 0.171587 13.501704 -6.839369 0 0 0 11.637467 -21.349502 -2.993531 0 0 0 4.415700 24.219012 5.700277 0 0 0 -20.039742 9.089211 -5.965344 0 0 0 -9.529197 17.847507 -5.791418 0 0 0 15.193230 7.392195 12.196582 0 0 0 -17.859526 -16.656468 -1.408883 0 0 0 17.241415 1.368276 -11.597615 0 0 0 -7.746853 -20.903616 7.500779 0 0 0 -0.501169 2.921349 12.295269 0 0 0 1.926862 -21.638136 17.175699 0 0 0 2.903825 -13.126976 -22.034707 0 0 0 -15.920358 -9.391563 10.007156 0 0 0 -17.318075 13.108324 2.534939 0 0 0 
-3.865481 -4.131121 -15.766414 0 0 0 -3.774161 11.023122 19.298266 0 0 0 0.173602 13.374303 -6.741239 0 0 0 11.626027 -21.306536 -2.989301 0 0 0 4.452830 24.331164 5.722461 0 0 0 -20.119906 9.049242 -5.727874 0 0 0 -9.420026 17.701551 -5.765631 0 0 0 15.279671 7.563388 12.194090 0 0 0 -17.882364 -16.976535 -1.586740 0 0 0 17.149828 1.500864 -11.462750 0 0 0 -7.752271 -21.023564 7.416316 0 0 0 -0.469804 2.968724 12.175116 0 0 0 1.783078 -21.579190 17.107352 0 0 0 2.918588 -13.141414 -22.052420 0 0 0 -15.939320 -9.358362 9.695316 0 0 0 -17.245118 13.188883 2.610528 0 0 0 
-3.968911 -4.236704 -15.688755 0 0 0 -3.586562 11.083184 19.328519 0 0 0 0.176202 13.302400 -6.660691 0 0 0 11.597019 -21.271580 -2.946498 0 0 0 4.486011 24.491161 5.709080 0 0 0 -20.149622 9.034414 -5.494393 0 0 0 -9.332934 17.618115 -5.727745 0 0 0 15.343112 7.751298 12.120495 0 0 0 -17.928891 -17.332837 -1.746825 0 0 0 17.057209 1.616826 -11.311090 0 0 0 -7.767732 -21.198897 7.310267 0 0 0 -0.472599 3.014034 12.046308 0 0 0 1.591874 -21.570145 17.033678 0 0 0 2.978691 -13.192508 -22.044423 0 0 0 -15.962568 -9.417301 9.462071 0 0 0 -17.158212 13.287336 2.711482 0 0 0 
